<svg width="360" height="145" viewBox="0 0 360 145" fill="none" xmlns="http://www.w3.org/2000/svg">
<path fill-rule="evenodd" clip-rule="evenodd" d="M204.214 0.542108C204.319 0.392563 204.525 0.356219 204.675 0.460932L214.899 7.6203C215.049 7.72501 215.085 7.93111 214.981 8.08065L200.75 28.4044C207.668 30.6147 212.382 32.9988 212.382 32.9988C212.382 32.9988 200.86 52.8163 181.32 52.8163C161.779 52.8163 147.893 34.346 147.893 34.346C147.893 34.346 152.817 31.2039 160.115 28.509L144.506 9.9067C144.388 9.76683 144.407 9.55834 144.546 9.441L154.108 1.41774C154.248 1.3004 154.456 1.31864 154.574 1.45849L174.338 25.0123C176.03 24.8209 177.754 24.7139 179.494 24.7139C181.995 24.7139 184.492 24.904 186.93 25.2266L204.214 0.542108ZM208.08 53.7548C213.295 50.0305 221.186 40.3099 221.186 40.3099C221.186 40.3099 241.341 56.2821 241.341 90.1491C241.341 124.016 206.496 144.399 206.496 144.399C206.496 144.399 189.847 127.585 185.76 106.272C181.673 84.9587 191.806 61.2926 191.806 61.2926C191.806 61.2926 202.866 57.4791 208.08 53.7548ZM151.92 53.7548C146.705 50.0305 138.814 40.3099 138.814 40.3099C138.814 40.3099 118.659 56.2821 118.659 90.1491C118.659 124.016 153.504 144.399 153.504 144.399C153.504 144.399 170.153 127.585 174.24 106.272C178.327 84.9587 168.194 61.2926 168.194 61.2926C168.194 61.2926 157.135 57.4791 151.92 53.7548Z" fill="#91C12F"/>
</svg>
